<svg width="307" height="301" viewBox="0 0 307 301" fill="none" xmlns="http://www.w3.org/2000/svg">
<path d="M222.312 24.8513L175.203 82.8578C169.717 89.6138 158.929 87.6239 156.214 79.3549L133.052 8.81737C131.11 2.90434 124.654 -0.221663 118.811 1.92243L85.4696 14.158C79.7108 16.2713 76.7934 22.6866 78.9856 28.4158L105.283 97.1404C108.397 105.277 101.266 113.632 92.741 111.835L21.3571 96.7885C15.3762 95.5278 9.51445 99.3849 8.30561 105.377L1.25587 140.319C0.0234479 146.427 4.10652 152.339 10.2557 153.349L82.923 165.284C91.447 166.685 95.1051 176.913 89.4022 183.401L40.8668 238.619C36.8154 243.228 37.3189 250.261 41.9856 254.246L69.3819 277.641C74.0995 281.669 81.2131 281.002 85.0993 276.167L130.89 219.191C136.339 212.41 147.131 214.339 149.894 222.587L173.405 292.769C175.374 298.645 181.806 301.736 187.625 299.601L220.994 287.355C226.767 285.237 229.682 278.798 227.465 273.062L201.182 205.077C198.061 197.005 205.054 188.657 213.548 190.314L285.699 204.393C291.664 205.556 297.442 201.663 298.603 195.698L305.335 161.12C306.52 155.033 302.441 149.169 296.321 148.164L223.505 136.204C214.996 134.806 211.33 124.607 217.003 118.113L265.764 62.2842C269.761 57.7088 269.291 50.7603 264.716 46.7638L238.087 23.5016C233.395 19.4029 226.239 20.0151 222.312 24.8513Z" stroke="black"/>
</svg>
